<?xml version="1.0" standalone="no"?>
<!DOCTYPE svg PUBLIC "-//W3C//DTD SVG 20010904//EN"
 "http://www.w3.org/TR/2001/REC-SVG-20010904/DTD/svg10.dtd">
<svg version="1.0" xmlns="http://www.w3.org/2000/svg"
 width="474.000000pt" height="316.000000pt" viewBox="0 0 474.000000 316.000000"
 preserveAspectRatio="xMidYMid meet">

<g transform="translate(0.000000,316.000000) scale(0.100000,-0.100000)"
fill="#000000" stroke="none">
<path d="M2235 2985 c-5 -2 -368 -9 -805 -15 -437 -6 -815 -15 -839 -20 -42
-8 -61 -22 -61 -47 0 -6 39 -56 87 -110 l87 -99 43 9 c33 8 51 7 87 -7 82 -31
120 -111 92 -195 -9 -28 -11 -50 -5 -57 5 -6 5 -15 1 -19 -4 -5 -2 -5 5 -1 7
4 23 -9 39 -31 35 -47 50 -63 40 -43 -4 8 2 4 13 -10 11 -14 21 -28 21 -31 0
-4 18 -18 41 -33 l40 -27 -17 25 c-15 24 -15 26 0 32 9 3 16 17 16 30 0 19 5
24 24 24 13 0 26 6 29 13 3 9 9 9 28 0 13 -6 32 -14 42 -17 10 -3 17 -12 14
-19 -2 -6 2 -19 10 -29 10 -11 12 -21 4 -35 -5 -10 -12 -26 -15 -37 -4 -10
-12 -16 -20 -13 -8 3 -20 -1 -26 -9 -14 -15 -40 -19 -40 -5 0 5 -14 11 -32 13
-39 6 -72 -21 -99 -81 l-18 -41 45 0 c39 0 51 -5 79 -33 20 -20 36 -48 40 -70
9 -48 21 -47 29 1 7 50 52 92 102 99 112 14 176 -142 84 -207 -41 -29 -110
-27 -148 5 -16 13 -32 22 -36 18 -3 -3 -6 -1 -6 6 0 19 -33 9 -53 -16 -10 -13
-31 -26 -48 -30 -16 -5 -28 -12 -27 -18 3 -10 432 -15 442 -5 3 3 8 68 12 143
l7 137 26 1 c14 0 54 0 89 -1 l62 -1 0 155 0 156 -360 0 c-233 0 -360 4 -360
10 0 6 127 10 360 10 l360 0 0 211 c0 142 3 208 10 204 7 -4 10 -76 10 -198 0
-106 -1 -198 0 -204 0 -10 42 -13 175 -13 l175 0 2 -97 c1 -54 0 -126 -1 -160
-2 -47 0 -63 10 -64 8 -1 34 -1 59 -2 l45 0 3 131 3 132 179 0 179 0 4 58 c3
52 10 -95 11 -258 l1 -65 250 -2 c138 -1 256 -3 263 -3 9 0 12 -64 12 -285 l0
-285 170 0 c107 0 170 -4 170 -10 0 -6 -63 -10 -170 -10 l-171 0 3 -157 3
-158 37 -3 c38 -3 78 11 78 28 0 6 -7 10 -15 10 -10 0 -15 10 -15 30 0 28 3
30 36 30 35 0 36 -1 32 -35 -3 -25 0 -35 10 -35 7 0 11 -4 8 -9 -11 -18 45
-21 385 -21 286 0 348 2 352 14 6 15 -11 36 -29 36 -7 0 -16 5 -20 12 -4 7 -3
8 4 4 24 -14 33 6 12 24 -23 20 -12 35 19 25 11 -3 22 -1 26 5 3 5 1 10 -4 10
-20 0 -12 24 15 47 15 12 32 20 38 16 6 -4 5 1 -3 10 -12 15 -14 15 -31 -5
-10 -13 -23 -19 -33 -15 -22 8 -22 43 1 56 9 6 13 11 8 11 -5 0 -18 -7 -28
-17 -26 -23 -34 -9 -9 16 12 12 17 21 12 21 -5 0 -14 -7 -21 -15 -7 -9 -15
-13 -18 -10 -3 3 3 15 14 27 l19 22 -27 -17 c-16 -10 -28 -13 -28 -8 0 6 13
18 29 27 17 10 28 21 26 24 -2 4 10 5 28 3 28 -3 29 -2 10 7 -13 5 -23 16 -23
25 0 21 17 19 23 -2 4 -14 5 -13 6 4 1 18 -6 23 -41 27 -24 3 -95 5 -158 5
-147 -1 -149 -1 -131 10 11 7 14 51 15 220 1 116 4 211 9 211 4 0 7 -48 7
-107 0 -91 3 -113 20 -141 13 -21 25 -30 33 -25 15 9 45 6 74 -9 16 -8 34 -8
67 1 25 6 59 11 75 11 29 0 31 2 31 38 0 27 -3 33 -10 22 -8 -12 -10 -12 -10
-1 0 9 -8 12 -25 9 -14 -3 -28 -1 -31 3 -3 5 8 9 23 9 24 0 29 4 29 25 0 14
-4 25 -9 25 -4 0 -5 5 -2 10 3 6 0 10 -9 10 -8 0 -16 -5 -18 -12 -3 -8 -6 -7
-10 3 -3 9 -2 22 3 30 6 10 9 10 9 2 0 -7 10 -12 23 -12 16 1 17 3 5 6 -9 2
-15 10 -12 18 3 8 1 22 -5 32 -8 14 -10 15 -11 3 0 -13 -2 -13 -9 -1 -6 9 -6
24 0 38 9 24 7 64 -6 116 -6 24 -11 27 -52 27 -47 0 -52 20 -5 21 25 0 26 1 6
9 -35 14 -37 28 -7 47 15 10 35 27 44 38 43 53 70 76 80 69 8 -5 10 1 7 20 -4
20 1 31 17 44 12 10 30 31 39 47 12 23 16 25 15 10 -3 -46 1 -51 21 -26 l20
23 1 -23 c1 -16 3 -18 6 -7 2 10 19 19 44 23 23 4 39 12 39 20 0 8 9 16 20 20
12 4 24 22 31 46 11 36 29 54 29 29 0 -7 14 -8 38 -4 101 18 91 49 -14 41 -40
-4 -80 -4 -89 -1 -16 7 -22 64 -5 64 5 0 19 10 31 23 12 12 23 17 26 11 2 -7
22 -8 61 -2 31 4 68 5 82 3 46 -10 190 27 190 47 0 5 -15 9 -32 9 -147 5 -193
4 -214 -7 -20 -11 -24 -10 -24 2 0 17 -17 19 -23 2 -2 -7 -8 -10 -12 -6 -11
10 5 68 18 68 7 0 17 15 23 33 6 17 14 39 18 47 11 25 -17 51 -65 61 -41 8
-2072 12 -2094 4z m-974 -263 c0 -89 5 -152 10 -152 6 0 17 16 25 35 15 37 23
42 40 25 17 -17 45 0 51 31 7 38 20 45 44 23 18 -17 20 -16 42 3 24 22 47 20
47 -3 0 -8 9 -14 19 -14 22 0 61 57 61 89 0 14 6 21 20 21 23 0 27 -25 6 -37
-19 -11 -56 -74 -56 -95 0 -11 -8 -18 -20 -18 -11 0 -20 6 -20 14 0 21 -23 25
-36 7 -11 -14 -15 -14 -39 -1 -33 18 -59 4 -63 -33 -3 -26 -27 -43 -37 -27
-13 20 -44 9 -69 -25 l-27 -35 193 -2 193 -3 -185 -2 c-159 -3 -187 -6 -197
-20 -12 -16 -13 -16 -13 0 0 9 -6 17 -12 18 -10 0 -10 2 0 6 9 3 12 49 12 181
0 96 2 173 5 171 2 -3 5 -73 6 -157z m859 138 c0 -19 -7 -20 -165 -20 -158 0
-165 1 -165 20 0 19 7 20 165 20 158 0 165 -1 165 -20z m933 -76 l78 -45 -3
-92 -3 -91 -75 -43 c-41 -24 -80 -43 -87 -43 -6 0 -44 19 -85 43 l-73 44 -3
91 -3 91 78 45 c43 25 83 46 88 46 6 0 45 -21 88 -46z m-793 16 c0 -19 -7 -20
-235 -20 -228 0 -235 1 -235 20 0 19 7 20 235 20 228 0 235 -1 235 -20z m170
-60 c0 -20 -7 -20 -320 -20 -313 0 -320 0 -320 20 0 20 7 20 320 20 313 0 320
0 320 -20z m-400 -60 c0 -19 -7 -20 -120 -20 -113 0 -120 1 -120 20 0 19 7 20
120 20 113 0 120 -1 120 -20z m1351 -273 c2 -135 0 -250 -4 -254 -4 -3 -7 110
-7 252 0 142 2 256 4 254 3 -2 6 -116 7 -252z m-1251 213 c0 -19 -7 -20 -170
-20 -163 0 -170 1 -170 20 0 19 7 20 170 20 163 0 170 -1 170 -20z m-80 -60
c0 -19 -7 -20 -130 -20 -123 0 -130 1 -130 20 0 19 7 20 130 20 123 0 130 -1
130 -20z m2117 -25 c-7 -14 -19 -25 -27 -25 -13 0 -13 1 0 10 8 5 11 10 7 10
-9 0 15 29 25 30 3 0 1 -11 -5 -25z m-1297 -51 l80 -46 0 -91 0 -92 -82 -47
-82 -46 -80 44 -81 43 0 97 0 96 75 44 c41 23 79 43 83 43 4 1 44 -20 87 -45z
m349 -1 l81 -48 0 -91 0 -92 -84 -46 -84 -45 -81 46 -81 46 0 92 0 93 78 45
c42 25 80 45 83 46 4 1 43 -20 88 -46z m601 35 c0 -23 -16 -39 -32 -33 -9 4
-86 -32 -183 -85 -92 -50 -169 -89 -171 -87 -2 2 75 46 171 97 134 73 171 97
163 107 -8 10 -3 13 21 13 18 0 31 -5 31 -12z m-1860 -18 c0 -18 -7 -20 -85
-20 -78 0 -85 2 -85 20 0 18 7 20 85 20 78 0 85 -2 85 -20z m1852 -160 c3
-127 3 -130 -23 -130 -18 0 -19 8 -19 120 0 112 1 120 19 120 18 0 20 -9 23
-110z m-62 -30 c0 -93 -1 -100 -20 -100 -19 0 -20 7 -20 100 0 93 1 100 20
100 19 0 20 -7 20 -100z m-2340 60 c0 -5 11 -10 25 -10 19 0 25 -5 25 -21 0
-11 7 -28 16 -37 15 -14 15 -17 -1 -28 -9 -7 -15 -20 -13 -31 2 -13 -3 -18
-21 -18 -14 0 -26 -6 -29 -13 -5 -17 -39 -15 -45 2 -4 9 -14 12 -28 9 -19 -5
-21 -3 -16 16 3 14 0 24 -9 28 -17 6 -18 25 -2 41 7 7 13 20 13 30 0 11 9 17
25 18 13 1 26 7 28 13 5 14 32 15 32 1z m202 -1 c2 -6 15 -12 28 -13 18 -1 24
-6 22 -20 -2 -10 5 -24 15 -31 17 -13 17 -14 -2 -36 -11 -12 -14 -19 -7 -15
11 7 12 4 3 -13 -7 -13 -21 -21 -36 -21 -14 0 -25 -4 -25 -10 0 -5 -7 -10 -15
-10 -8 0 -15 4 -15 9 0 5 -12 11 -27 13 -18 2 -28 9 -28 19 0 9 -7 24 -15 34
-13 15 -12 19 4 30 9 7 16 21 14 32 -2 13 4 19 25 21 15 2 27 8 27 13 0 13 28
11 32 -2z m2080 -69 c4 -84 2 -90 -23 -90 -17 0 -19 8 -19 80 0 72 2 80 19 80
17 0 20 -9 23 -70z m-55 -14 c5 -72 0 -86 -26 -79 -19 5 -21 13 -21 75 0 65 1
69 21 66 18 -3 22 -11 26 -62z m-59 -19 c3 -55 2 -57 -23 -57 -27 0 -30 12
-19 83 5 28 11 37 23 35 12 -2 17 -17 19 -61z m-60 -15 c3 -40 2 -43 -20 -40
-17 2 -24 11 -26 31 -5 39 5 59 25 55 13 -2 19 -15 21 -46z m-58 -12 c0 -23
-4 -30 -20 -30 -11 0 -23 7 -26 15 -9 23 3 45 26 45 16 0 20 -7 20 -30z m230
-54 c8 -2 -21 -4 -65 -4 -44 0 -69 3 -56 7 22 6 87 4 121 -3z m-465 -42 c10
-10 13 -24 9 -38 -9 -28 -9 -28 -39 -28 -30 0 -30 0 -39 28 -7 24 15 54 39 54
7 0 21 -7 30 -16z m417 -64 c17 -18 28 -37 25 -47 -3 -13 -5 -12 -6 5 -1 22
-4 23 -68 20 l-68 -3 0 -45 0 -45 62 -3 c55 -3 62 -1 68 18 4 12 9 19 12 17 2
-3 0 -15 -7 -26 -9 -18 -20 -21 -68 -21 -32 0 -63 5 -70 12 -22 22 -14 81 16
116 34 40 65 41 104 2z m-417 -36 c9 -9 14 -23 11 -31 -3 -8 -6 -19 -6 -24 0
-5 -7 -9 -15 -9 -21 0 -19 -12 6 -33 14 -13 18 -24 13 -40 -9 -29 -9 -29 -39
-29 -30 0 -30 0 -39 29 -5 16 -1 27 13 40 25 21 27 33 6 33 -8 0 -15 4 -15 9
0 5 -3 16 -6 24 -6 16 20 47 41 47 7 0 21 -7 30 -16z m140 -4 c12 19 26 11 16
-8 -7 -13 -6 -23 1 -30 16 -16 2 -28 -16 -13 -10 8 -16 9 -21 1 -12 -19 -26
-11 -15 9 5 11 7 28 3 38 -6 15 -5 16 9 5 11 -9 18 -10 23 -2z m232 -37 c-3
-10 -5 -4 -5 12 0 17 2 24 5 18 2 -7 2 -21 0 -30z m73 -158 c20 -37 0 -75 -40
-75 -23 0 -33 -7 -45 -30 -12 -23 -22 -30 -46 -30 -24 0 -33 6 -41 28 -9 24
-15 27 -45 24 -25 -3 -38 -12 -49 -34 -13 -26 -20 -29 -49 -26 -19 2 -32 1
-29 -3 2 -4 -1 -19 -7 -33 -10 -20 -20 -26 -44 -26 -27 0 -35 -5 -45 -30 -14
-35 -52 -41 -82 -13 -22 19 -23 42 -4 68 12 17 11 22 -6 45 -16 23 -17 30 -7
53 10 21 19 27 44 27 27 0 35 5 45 30 10 25 18 30 45 30 27 0 36 -6 46 -28 10
-23 17 -27 43 -24 22 3 37 12 48 33 24 40 71 41 89 1 10 -23 17 -27 43 -24 22
3 37 12 48 33 22 38 68 41 88 4z m-40 -405 l0 -180 -30 0 c-22 0 -30 5 -31 18
0 9 -1 90 -2 180 l-2 162 33 0 32 0 0 -180z m-180 -71 l0 -110 -32 3 -33 3 -2
95 c-1 52 0 101 2 108 2 6 18 12 35 12 l30 0 0 -111z m270 -4 l0 -105 -30 0
-30 0 0 105 0 105 30 0 30 0 0 -105z m93 -3 c0 -31 -2 -67 -2 -79 -1 -19 -7
-23 -31 -23 l-30 0 0 80 0 80 33 0 32 0 -2 -58z m-453 -27 l0 -75 -35 0 -35 0
0 75 0 75 35 0 35 0 0 -75z m180 0 l0 -75 -29 0 c-33 0 -41 14 -41 68 0 64 9
82 41 82 l29 0 0 -75z m403 -39 c6 -16 -1 -26 -17 -26 -6 0 -4 5 4 10 10 6 11
10 3 10 -7 0 -13 5 -13 10 0 15 17 12 23 -4z"/>
<path d="M2893 2762 l-63 -37 0 -75 0 -76 65 -37 c35 -20 67 -37 70 -37 3 0
35 17 70 37 l65 37 0 76 0 75 -66 38 c-36 20 -69 37 -73 36 -3 0 -34 -17 -68
-37z m162 -79 c16 -16 16 -18 -3 -34 -12 -9 -18 -20 -14 -24 4 -5 -4 -1 -18 8
-25 18 -33 46 -15 59 16 12 32 9 50 -9z m-127 -72 c-7 -9 -14 -18 -15 -20 -2
-2 -3 5 -3 16 0 11 7 20 15 20 12 0 12 -3 3 -16z"/>
<path d="M2720 2461 l-65 -37 -1 -72 -2 -73 56 -35 c30 -20 61 -38 68 -41 7
-2 42 13 78 34 l66 38 0 71 c0 79 2 76 -80 122 l-55 31 -65 -38z m43 -47 c4
-1 11 -2 15 -3 5 0 16 -19 25 -41 9 -24 22 -40 32 -40 9 0 30 -7 46 -16 25
-12 28 -18 19 -29 -10 -12 -18 -11 -51 6 -22 11 -37 24 -34 29 6 9 -9 14 -29
11 -5 -1 -6 5 -3 12 8 23 -21 57 -49 57 -36 0 -54 -43 -29 -70 18 -20 46 -26
59 -13 8 9 36 13 36 6 0 -13 -37 -32 -62 -33 -67 0 -91 86 -34 121 16 10 34
15 40 11 6 -4 14 -7 19 -8z"/>
<path d="M2850 2300 c19 -10 37 -16 40 -13 9 8 -33 33 -54 33 -16 -1 -13 -5
14 -20z"/>
<path d="M3067 2459 l-67 -40 0 -73 c0 -69 1 -73 28 -87 15 -8 45 -26 66 -40
l39 -26 69 41 68 41 0 71 c0 79 2 76 -80 122 l-56 31 -67 -40z m128 -54 c41
-40 30 -102 -23 -129 -39 -20 -80 -9 -103 28 -23 38 -25 68 -4 60 10 -4 15 0
15 11 0 9 -5 13 -11 9 -8 -5 -8 -1 0 14 21 40 90 44 126 7z"/>
<path d="M3105 2410 c-3 -5 -1 -10 4 -10 6 0 11 5 11 10 0 6 -2 10 -4 10 -3 0
-8 -4 -11 -10z"/>
<path d="M3130 2408 c0 -3 9 -6 20 -5 11 1 20 5 20 9 0 3 -9 6 -20 5 -11 -1
-20 -5 -20 -9z"/>
<path d="M3092 2355 c2 -48 18 -56 18 -9 0 42 14 39 15 -3 0 -46 25 -40 25 6
0 39 -2 41 -30 41 -27 0 -29 -3 -28 -35z"/>
<path d="M3162 2350 c-1 -39 11 -53 21 -27 4 9 6 9 6 -1 1 -7 6 -10 11 -7 14
8 13 62 -1 71 -9 5 -10 -1 -5 -20 4 -15 2 -26 -4 -26 -5 0 -10 11 -10 25 0 14
-4 25 -9 25 -5 0 -9 -18 -9 -40z"/>
<path d="M3060 2343 c0 -4 5 -15 10 -23 8 -13 10 -13 10 2 0 9 -4 20 -10 23
-5 3 -10 3 -10 -2z"/>
<path d="M3130 2292 c0 -4 9 -8 20 -9 11 -1 20 2 20 5 0 4 -9 8 -20 9 -11 1
-20 -2 -20 -5z"/>
<path d="M1368 2329 c-27 -15 -23 -57 7 -71 19 -8 28 -8 40 2 21 18 19 57 -4
70 -23 12 -22 12 -43 -1z"/>
<path d="M1560 2315 c-15 -18 -4 -52 19 -60 40 -12 70 20 51 56 -13 22 -52 25
-70 4z"/>
<path d="M3180 2125 c-10 -12 -9 -16 5 -21 23 -9 40 10 22 25 -11 9 -17 8 -27
-4z"/>
<path d="M3574 2085 c-18 -14 -17 -14 15 -15 29 0 32 2 21 15 -15 18 -12 18
-36 0z"/>
<path d="M3181 2026 c-12 -14 -5 -26 16 -26 15 0 18 26 4 34 -5 3 -14 0 -20
-8z"/>
<path d="M3186 1933 c-12 -12 -6 -33 9 -33 8 0 15 6 15 14 0 17 -14 28 -24 19z"/>
<path d="M3596 1839 c-11 -17 -12 -25 -3 -40 27 -44 91 -4 67 41 -14 26 -45
26 -64 -1z"/>
<path d="M3422 1838 c-25 -25 -6 -68 30 -68 26 0 41 35 26 60 -14 22 -38 26
-56 8z"/>
<path d="M3254 1830 c-27 -11 -35 -31 -19 -53 17 -24 52 -21 66 4 15 29 -16
61 -47 49z"/>
<path d="M3509 1776 c-9 -20 -9 -29 1 -41 28 -34 87 5 64 43 -18 28 -52 27
-65 -2z"/>
<path d="M3332 1778 c-25 -25 -6 -68 30 -68 9 0 22 9 28 20 22 40 -26 80 -58
48z"/>
<path d="M3152 1768 c-25 -25 -6 -68 30 -68 22 0 40 33 31 56 -5 13 -3 15 7 9
8 -5 11 -4 7 1 -8 14 -61 16 -75 2z"/>
<path d="M3292 1751 c-11 -7 -11 -9 0 -14 9 -3 15 1 15 9 0 8 -1 14 -1 14 -1
0 -7 -4 -14 -9z"/>
<path d="M3230 1739 c0 -5 5 -7 10 -4 6 3 10 8 10 11 0 2 -4 4 -10 4 -5 0 -10
-5 -10 -11z"/>
<path d="M3244 1718 c-4 -6 -8 -23 -9 -38 -1 -19 3 -26 18 -28 46 -3 74 37 45
66 -15 15 -45 15 -54 0z"/>
<path d="M3151 1648 c-11 -29 3 -48 35 -48 29 0 46 28 33 52 -14 26 -58 23
-68 -4z"/>
<path d="M4673 2753 c9 -2 25 -2 35 0 9 3 1 5 -18 5 -19 0 -27 -2 -17 -5z"/>
<path d="M730 2679 c-11 -7 -2 -8 30 -4 105 14 170 -74 135 -180 -7 -20 -6
-20 9 -1 38 47 7 149 -53 181 -34 17 -99 20 -121 4z"/>
<path d="M744 2649 c-3 -6 23 -41 62 -80 72 -73 84 -74 84 -10 0 47 -55 101
-103 101 -20 0 -39 -5 -43 -11z"/>
<path d="M1738 2285 l3 -156 167 3 167 3 3 153 3 152 -173 0 -173 0 3 -155z
m270 54 c1 -9 -8 -20 -23 -27 -26 -12 -26 -12 -8 -36 l18 -24 9 22 c8 19 9 19
13 3 3 -10 2 -29 -1 -43 -6 -23 -9 -24 -110 -24 -111 0 -117 3 -115 53 0 20 1
20 12 5 10 -15 13 -15 30 5 18 21 18 22 -7 42 -48 38 -35 46 76 43 84 -2 103
-6 106 -19z"/>
<path d="M1821 2334 c8 -9 29 -27 49 -39 l35 -22 47 31 c26 17 48 34 48 39 0
4 -43 7 -96 7 -88 0 -95 -1 -83 -16z"/>
<path d="M1837 2261 c-9 -16 -17 -32 -17 -35 0 -3 41 -6 90 -6 l90 0 -22 35
c-26 39 -30 41 -48 20 -7 -8 -18 -15 -25 -15 -7 0 -18 7 -25 15 -17 21 -23 19
-43 -14z"/>
<path d="M2230 2261 l0 -128 170 -2 170 -2 0 131 0 130 -170 0 -170 0 0 -129z
m290 53 c0 -8 -27 -34 -36 -34 -4 0 -16 -8 -26 -17 -18 -16 -18 -16 -12 0 3
10 1 17 -5 17 -6 0 -11 -5 -11 -11 0 -8 -5 -8 -15 1 -12 10 -15 10 -15 0 0 -7
-7 -10 -16 -6 -11 4 -15 2 -11 -7 3 -8 -1 -14 -9 -14 -8 0 -14 5 -14 10 0 6
-5 5 -12 -1 -7 -5 -24 -9 -38 -8 -15 1 -29 -6 -36 -18 -11 -18 -11 -17 -16 6
-2 13 -1 33 3 44 6 14 8 15 8 3 1 -17 45 -21 69 -6 6 5 16 6 21 2 5 -3 12 -1
16 5 4 6 10 8 15 5 5 -3 11 -1 14 3 3 5 21 8 40 7 19 -2 43 3 53 11 19 14 33
18 33 8z m-250 -154 c0 -5 -4 -10 -10 -10 -5 0 -10 5 -10 10 0 6 5 10 10 10 6
0 10 -4 10 -10z m40 0 c0 -5 -4 -10 -10 -10 -5 0 -10 5 -10 10 0 6 5 10 10 10
6 0 10 -4 10 -10z"/>
<path d="M1159 2319 c-18 -18 -19 -23 -6 -42 18 -27 37 -32 61 -14 14 10 17
21 13 39 -9 34 -43 42 -68 17z"/>
<path d="M485 2116 c-16 -7 -132 -118 -257 -245 -201 -204 -249 -261 -220
-261 6 0 106 101 370 373 31 31 62 57 69 57 15 0 43 -24 180 -151 l42 -39 100
0 c56 0 101 3 101 8 0 4 -23 7 -51 8 -46 0 -55 4 -85 37 -26 28 -34 46 -34 73
0 31 -7 43 -47 78 -25 22 -53 46 -62 52 -28 20 -75 24 -106 10z"/>
<path d="M2318 2102 l-748 -2 0 -393 c0 -215 4 -398 9 -406 5 -8 6 -24 1 -37
-11 -27 8 -37 55 -28 47 8 58 45 30 94 -8 14 -14 30 -15 36 0 15 28 26 43 17
7 -4 20 -6 31 -4 10 1 31 -3 48 -10 20 -8 32 -9 36 -2 11 16 50 25 57 13 4 -6
13 -9 20 -6 8 3 14 -6 17 -24 6 -41 -41 -53 -56 -14 -3 8 -12 14 -19 14 -14 0
-27 -47 -27 -95 0 -20 7 -20 593 -20 l592 0 3 30 c2 17 11 38 20 48 18 20 54
19 64 -3 4 -8 7 166 7 387 1 221 -2 403 -6 405 -5 2 -344 2 -755 0z m-4 -164
c19 -11 17 -13 -23 -21 -32 -6 -40 -11 -30 -18 8 -5 22 -9 32 -9 9 0 17 -8 17
-17 0 -10 4 -14 8 -8 10 14 32 17 32 5 0 -5 -7 -10 -16 -10 -9 0 -13 -5 -9
-12 4 -7 -3 -2 -15 11 -12 14 -24 21 -28 15 -9 -12 -72 -34 -72 -25 0 8 -87 7
-95 -1 -3 -3 -23 -2 -44 2 -20 4 -47 3 -59 -1 -14 -5 -22 -4 -22 2 0 7 -12 8
-32 4 -25 -5 -29 -4 -18 4 9 7 10 11 3 11 -6 0 -15 -5 -19 -11 -3 -6 -17 -8
-29 -5 -13 3 -27 2 -30 -4 -3 -5 -11 -10 -16 -10 -6 0 -7 5 -3 12 4 6 3 8 -3
5 -24 -15 -228 1 -228 18 0 6 21 12 47 15 52 6 69 16 44 26 -25 10 -19 22 17
34 44 14 563 3 591 -12z m-24 -98 c0 -5 -2 -10 -4 -10 -3 0 -8 5 -11 10 -3 6
-1 10 4 10 6 0 11 -4 11 -10z m-20 -19 c3 -1 5 -60 5 -131 l0 -130 33 0 c29 0
32 -3 32 -30 0 -30 -1 -30 -54 -30 -35 0 -56 5 -59 13 -4 10 -2 277 2 309 1 3
9 5 19 3 9 -2 19 -4 22 -4z m368 -29 c-2 -21 -9 -28 -30 -30 l-28 -3 0 -131 0
-130 -30 4 c-26 4 -29 2 -24 -18 7 -27 -3 -34 -39 -27 -32 6 -48 31 -40 61 7
28 23 29 23 1 0 -11 4 -18 10 -14 5 3 6 13 3 23 -5 13 -3 14 7 5 7 -6 19 -9
26 -6 11 4 14 32 14 119 l0 114 -25 0 c-17 0 -25 6 -26 18 -3 45 -58 -158 -58
-215 -1 -60 -2 -63 -26 -63 -24 0 -25 2 -25 63 0 41 -10 94 -30 157 -16 52
-30 96 -30 98 0 2 12 2 27 0 23 -3 29 -10 43 -63 l17 -60 17 65 18 65 104 -3
105 -3 -3 -27z m220 22 c22 -15 32 -74 12 -74 -5 0 -10 4 -10 9 0 12 -27 21
-44 15 -35 -13 -49 -141 -20 -182 16 -23 48 -29 59 -12 12 19 25 10 25 -18 0
-38 -17 -52 -61 -52 -30 0 -42 6 -57 28 -35 50 -43 121 -21 214 13 58 29 74
89 87 3 0 16 -6 28 -15z m162 -35 c0 -33 -2 -34 -29 -17 -15 9 -23 9 -35 -1
-20 -16 -11 -37 36 -82 30 -29 38 -43 38 -72 0 -49 -28 -104 -55 -109 -46 -9
-93 30 -79 66 5 14 9 14 26 2 26 -18 58 -9 58 17 0 11 -16 35 -35 54 -19 19
-35 39 -35 44 0 6 -4 8 -8 5 -10 -6 1 94 12 112 13 21 49 30 78 20 22 -8 28
-16 28 -39z m-1275 19 c45 -201 57 -254 61 -258 16 -15 23 40 21 150 l-2 125
30 3 c30 3 31 1 60 -86 l30 -89 5 86 c5 80 7 86 28 89 22 3 22 3 22 -142 0
-80 4 -147 9 -150 9 -6 35 104 26 112 -3 3 -1 10 4 16 5 6 17 46 26 89 16 75
18 77 46 77 16 0 31 -6 33 -12 14 -52 66 -297 66 -313 0 -30 -19 -45 -56 -45
-39 0 -40 1 -47 65 -3 28 -3 42 -1 32 3 -9 10 -14 16 -11 6 4 14 0 19 -7 6
-10 9 -6 9 14 0 25 -3 27 -39 27 -36 0 -39 -2 -45 -35 -4 -19 -13 -35 -20 -35
-7 0 -12 -10 -12 -22 1 -20 -5 -23 -41 -26 -34 -3 -44 1 -53 19 -10 17 -9 20
1 14 9 -6 10 -3 5 11 -5 10 -23 62 -42 114 l-33 95 -2 -105 c-1 -58 0 -115 1
-128 1 -21 -2 -23 -42 -19 -31 3 -44 9 -46 22 -3 11 0 15 7 11 6 -4 11 -2 11
3 0 6 -9 11 -19 11 -20 0 -31 18 -31 51 0 15 -7 19 -39 19 -36 0 -39 -2 -45
-35 -6 -29 -11 -35 -32 -35 -20 0 -24 4 -20 18 7 22 66 287 66 296 0 3 13 6
30 6 23 0 31 -5 35 -22z m953 -147 c-2 -93 0 -167 4 -165 4 2 9 0 12 -5 7 -11
-17 -21 -55 -21 -23 0 -29 4 -29 23 0 18 2 19 10 7 6 -10 10 40 10 151 0 91 3
169 7 172 3 4 15 7 25 7 18 0 19 -9 16 -169z m-491 -8 c-3 -10 -5 -4 -5 12 0
17 2 24 5 18 2 -7 2 -21 0 -30z m730 -25 c-3 -8 -6 -5 -6 6 -1 11 2 17 5 13 3
-3 4 -12 1 -19z m-317 -104 c0 -14 -4 -23 -9 -20 -5 3 -7 15 -4 26 7 28 13 25
13 -6z m-253 -50 c-8 -9 -47 6 -47 17 0 6 4 7 10 4 5 -3 13 7 17 22 l7 28 9
-33 c6 -18 7 -35 4 -38z m-57 16 c0 -5 -2 -10 -4 -10 -3 0 -8 5 -11 10 -3 6
-1 10 4 10 6 0 11 -4 11 -10z m-289 -110 c11 0 18 -4 14 -9 -11 -18 -45 -8
-44 14 0 11 3 14 6 8 2 -7 14 -13 24 -13z m214 4 c9 -9 15 -28 13 -43 -2 -21
-9 -27 -34 -29 -19 -2 -38 3 -48 13 -16 17 -22 56 -9 68 12 13 62 7 78 -9z
m143 0 c15 -4 22 -14 22 -30 0 -21 -5 -24 -36 -24 -21 0 -33 4 -29 10 3 6 1
10 -4 10 -6 0 -11 9 -11 20 0 21 16 25 58 14z m142 -14 c0 -5 -4 -10 -10 -10
-5 0 -10 5 -10 10 0 6 5 10 10 10 6 0 10 -4 10 -10z m60 3 c0 -5 -7 -16 -14
-26 -12 -16 -13 -15 -13 8 0 15 5 25 13 25 8 0 14 -3 14 -7z m-60 -33 c0 -5
-5 -10 -11 -10 -5 0 -7 5 -4 10 3 6 8 10 11 10 2 0 4 -4 4 -10z"/>
<path d="M2080 1900 c0 -11 43 -12 115 0 47 7 45 7 -32 9 -50 0 -83 -3 -83 -9z"/>
<path d="M2140 1870 c0 -5 5 -10 11 -10 5 0 7 5 4 10 -3 6 -8 10 -11 10 -2 0
-4 -4 -4 -10z"/>
<path d="M1700 1708 c0 -15 -4 -38 -10 -52 -9 -24 -7 -26 15 -26 24 0 25 2 19
43 -8 49 -24 73 -24 35z"/>
<path d="M2100 1705 c0 -17 -3 -40 -6 -52 -5 -19 -2 -23 15 -23 19 0 21 4 15
43 -8 51 -24 73 -24 32z"/>
<path d="M2160 1496 c0 -2 9 -6 20 -9 11 -3 20 -1 20 4 0 5 -9 9 -20 9 -11 0
-20 -2 -20 -4z"/>
<path d="M1033 2072 c-7 -5 -11 -30 -9 -70 1 -34 -2 -62 -7 -62 -5 0 -3 -8 4
-17 12 -14 12 -16 -1 -9 -8 4 -6 0 4 -8 26 -21 42 -20 25 1 -10 11 -10 14 -1
9 9 -5 12 13 12 78 0 84 -3 93 -27 78z"/>
<path d="M1080 2010 l0 -70 26 6 c22 6 25 4 19 -7 -7 -11 -6 -12 7 -2 8 7 19
9 23 5 5 -4 5 -2 2 5 -4 6 -2 13 4 15 17 6 3 71 -19 90 -9 9 -27 19 -39 22
-22 7 -23 5 -23 -64z"/>
<path d="M1259 2051 c-39 -39 -39 -85 -1 -129 37 -43 77 -50 122 -20 43 29 58
74 40 118 l-13 31 -43 -42 -44 -43 0 57 c0 67 -15 74 -61 28z"/>
<path d="M1340 2043 l0 -38 28 28 c23 23 25 29 12 37 -29 19 -40 11 -40 -27z"/>
<path d="M3987 2053 c-10 -9 -9 -33 1 -33 4 0 8 9 9 20 2 21 0 24 -10 13z"/>
<path d="M720 1970 c0 -34 23 -66 58 -78 36 -13 69 2 34 15 -13 5 -23 13 -23
18 1 6 -3 10 -7 10 -5 0 -21 14 -35 30 l-26 30 -1 -25z"/>
<path d="M1190 1946 c0 -2 7 -6 15 -10 8 -3 15 -1 15 4 0 6 -7 10 -15 10 -8 0
-15 -2 -15 -4z"/>
<path d="M1110 1912 c-28 -12 -31 -16 -16 -20 10 -2 28 5 39 17 25 24 24 25
-23 3z"/>
<path d="M4031 1874 c0 -11 3 -14 6 -6 3 7 2 16 -1 19 -3 4 -6 -2 -5 -13z"/>
<path d="M4095 1825 c4 -11 8 -25 8 -32 0 -7 4 -10 9 -7 12 8 10 18 -8 40 -15
19 -16 19 -9 -1z"/>
<path d="M710 1824 c0 -8 83 -83 92 -84 4 0 5 -7 2 -15 -8 -20 10 -19 26 0 12
14 16 13 42 -12 24 -23 31 -25 39 -13 14 21 5 110 -12 121 -15 10 -189 13
-189 3z"/>
<path d="M1064 1815 c-3 -8 -4 -35 -2 -60 2 -25 -1 -45 -6 -45 -5 0 -7 -3 -4
-6 3 -3 22 3 42 14 19 11 33 21 31 24 -3 3 7 5 22 4 16 -1 58 -18 95 -39 l66
-38 0 -84 0 -85 -74 -41 c-41 -22 -82 -38 -90 -35 -12 5 -14 1 -7 -17 4 -12 7
-58 7 -102 l-1 -79 -53 -28 c-29 -15 -58 -33 -64 -39 -8 -9 -8 -10 0 -6 16 9
11 -73 -5 -83 -9 -5 -6 -9 9 -13 12 -3 20 -11 19 -19 -1 -7 1 -21 6 -31 4 -10
2 -23 -4 -31 -6 -7 -7 -16 -3 -20 4 -4 -1 -14 -11 -21 -13 -9 -16 -20 -11 -39
7 -30 16 -37 72 -59 68 -25 82 -11 83 83 1 41 0 83 0 93 -2 17 28 66 60 98 41
41 75 -34 62 -138 -10 -79 -5 -293 7 -293 9 0 17 30 30 105 15 93 19 110 33
170 8 33 24 81 36 107 14 30 20 59 17 82 -3 20 0 36 5 36 5 0 9 5 9 11 0 5 -6
7 -12 4 -7 -4 -4 1 6 9 23 18 14 21 -15 5 -11 -5 -17 -14 -14 -19 4 -6 -1 -7
-11 -3 -13 5 -15 3 -9 -7 5 -8 4 -11 -3 -7 -5 4 -24 -1 -41 -10 -29 -17 -32
-17 -60 0 -16 9 -36 14 -44 11 -8 -3 -18 -1 -22 5 -4 7 1 9 12 5 15 -5 15 -4
3 4 -10 8 -19 7 -29 -1 -12 -10 -14 -9 -9 5 4 9 -1 23 -13 34 -16 14 -19 31
-19 94 l0 77 70 41 c38 23 74 42 80 42 6 0 42 -19 80 -42 l70 -41 1 -76 1 -76
17 50 c9 29 13 53 7 56 -13 10 2 42 17 36 6 -2 11 -12 11 -21 -1 -9 2 -16 7
-16 5 0 9 48 9 108 1 59 2 167 3 240 l2 132 -233 0 c-197 0 -234 -2 -238 -15z
m59 -630 c8 -19 -13 -31 -23 -14 -9 14 -4 29 10 29 4 0 10 -7 13 -15z"/>
<path d="M4628 1803 c12 -2 30 -2 40 0 9 3 -1 5 -23 4 -22 0 -30 -2 -17 -4z"/>
<path d="M3740 1775 c0 -8 4 -15 10 -15 5 0 7 7 4 15 -4 8 -8 15 -10 15 -2 0
-4 -7 -4 -15z"/>
<path d="M3797 1749 c8 -8 19 -8 40 -1 28 10 28 10 -11 11 -29 1 -37 -2 -29
-10z"/>
<path d="M3935 1750 c-19 -7 -19 -7 2 -14 13 -4 28 -4 34 0 8 4 9 3 5 -4 -5
-8 2 -12 18 -12 14 0 26 5 26 10 0 6 -6 10 -12 10 -9 0 -8 4 2 10 18 11 -43
11 -75 0z"/>
<path d="M3747 1743 c-4 -3 -7 -32 -7 -63 l0 -56 124 -1 c68 -1 137 2 153 7
15 4 22 9 14 9 -11 1 -10 5 5 16 17 14 16 14 -13 0 -40 -19 -115 -19 -152 0
-16 8 -31 12 -35 10 -3 -3 -4 -2 -1 2 9 11 -47 63 -69 64 -21 0 -21 1 -1 9 15
6 16 9 4 9 -9 1 -19 -2 -22 -6z m68 -63 c3 -5 1 -10 -4 -10 -6 0 -11 5 -11 10
0 6 2 10 4 10 3 0 8 -4 11 -10z"/>
<path d="M3847 1733 c-38 -6 -29 -26 14 -34 19 -4 25 -7 14 -9 -15 -1 -9 -7
22 -21 41 -19 103 -17 103 3 0 5 4 7 9 3 5 -3 12 -1 16 5 4 6 -11 10 -37 11
-24 1 -35 3 -24 6 14 4 9 9 -24 24 -23 10 -47 18 -54 18 -6 -1 -24 -4 -39 -6z"/>
<path d="M1103 1687 c-48 -29 -69 -57 -43 -57 6 0 10 7 10 15 0 14 12 20 34
16 4 -1 14 3 21 9 10 8 15 8 20 0 4 -6 25 -10 48 -8 l42 3 0 -55 0 -55 -42 -3
c-42 -3 -43 -4 -43 -38 0 -37 -7 -41 -35 -21 -14 11 -15 16 -5 22 9 5 11 4 6
-3 -4 -7 -2 -12 4 -12 7 0 9 7 6 16 -3 9 -6 20 -6 25 0 5 -11 9 -25 9 -24 0
-30 9 -26 38 1 6 -2 12 -8 12 -11 0 -8 -78 5 -89 5 -4 28 -19 52 -32 43 -23
43 -23 78 -4 25 14 31 21 22 28 -9 6 -7 7 6 3 33 -11 46 12 46 84 l0 68 -55
31 c-30 17 -56 31 -57 31 -2 -1 -27 -15 -55 -33z m52 13 c-3 -5 -12 -10 -18
-10 -7 0 -6 4 3 10 19 12 23 12 15 0z"/>
<path d="M4180 1710 c-8 -5 -10 -10 -5 -10 6 0 17 5 25 10 8 5 11 10 5 10 -5
0 -17 -5 -25 -10z"/>
<path d="M4148 1663 c6 -2 9 -10 6 -15 -4 -7 -2 -8 5 -4 13 9 5 26 -12 25 -9
0 -8 -2 1 -6z"/>
<path d="M1080 1605 c0 -33 4 -45 15 -45 8 0 15 5 15 11 0 5 5 7 10 4 6 -3 10
-1 10 4 0 6 -4 11 -10 11 -5 0 -10 6 -10 14 0 9 9 14 20 13 15 -1 19 -7 18
-27 -3 -23 1 -25 40 -28 l42 -3 0 45 0 46 -75 0 -75 0 0 -45z"/>
<path d="M4460 1636 c-48 -14 -121 -59 -157 -98 -11 -12 -36 -52 -54 -88 -29
-56 -33 -76 -36 -152 -3 -101 12 -162 62 -247 41 -70 135 -159 201 -191 52
-25 164 -38 229 -26 l35 7 0 363 0 362 -44 22 c-24 12 -47 22 -51 22 -5 0 -16
6 -24 14 -23 20 -109 27 -161 12z"/>
<path d="M718 1605 c-21 -24 -28 -44 -28 -74 l0 -41 -41 0 c-41 0 -45 -3 -262
-225 -121 -124 -229 -230 -239 -236 -16 -8 -28 -1 -76 45 -31 31 -60 56 -64
56 -4 0 -8 -45 -8 -99 l0 -99 44 -17 c42 -16 46 -16 88 3 30 13 76 54 148 132
116 125 379 397 453 468 40 39 47 51 47 84 0 49 -24 50 -62 3z"/>
<path d="M820 1619 c0 -5 5 -7 10 -4 6 3 10 8 10 11 0 2 -4 4 -10 4 -5 0 -10
-5 -10 -11z"/>
<path d="M644 1535 c-24 -25 -21 -35 8 -35 13 0 18 8 18 30 0 17 -1 30 -2 29
-2 -1 -13 -12 -24 -24z"/>
<path d="M4086 1533 c-6 -14 -5 -15 5 -6 7 7 10 15 7 18 -3 3 -9 -2 -12 -12z"/>
<path d="M4100 1511 c0 -10 19 -25 25 -20 1 2 -3 10 -11 17 -8 7 -14 8 -14 3z"/>
<path d="M1064 1451 c18 -20 56 -34 56 -21 0 10 -46 40 -61 40 -8 0 -6 -7 5
-19z"/>
<path d="M1255 1419 c-61 -38 -60 -37 -52 -45 4 -4 13 -1 21 6 17 14 36 1 49
-34 5 -13 3 -17 -7 -13 -9 4 -13 1 -10 -6 3 -8 -4 -13 -15 -13 -11 0 -17 4
-15 8 3 4 -1 8 -9 8 -15 0 -30 -51 -21 -73 4 -11 81 -57 107 -64 4 -1 3 1 -3
4 -5 2 -7 10 -4 15 4 6 2 8 -4 4 -6 -3 -13 -3 -16 2 -7 12 26 11 41 0 7 -6 10
-15 6 -21 -3 -6 -1 -7 6 -3 6 4 9 11 6 16 -3 4 2 11 11 14 9 3 12 2 9 -4 -4
-6 10 -3 30 7 40 19 48 38 43 108 -3 47 -5 49 -58 81 -30 18 -57 33 -60 33 -3
1 -27 -13 -55 -30z m102 -44 c4 -4 2 -5 -4 -1 -16 9 -12 -35 6 -78 6 -16 9
-31 7 -34 -3 -2 -26 -6 -52 -7 -53 -2 -64 11 -44 53 8 15 12 33 11 40 -6 33
52 54 76 27z"/>
<path d="M1300 1355 c0 -9 5 -15 11 -13 6 2 11 8 11 13 0 5 -5 11 -11 13 -6 2
-11 -4 -11 -13z"/>
<path d="M1280 1301 c-15 -29 -13 -31 30 -31 41 0 52 14 28 38 -18 18 -46 14
-58 -7z"/>
<path d="M4016 1428 c3 -4 9 -8 15 -8 5 0 9 4 9 8 0 5 -7 9 -15 9 -8 0 -12 -4
-9 -9z"/>
<path d="M1046 1405 c3 -7 0 -23 -6 -35 -8 -15 -8 -20 -1 -16 7 5 11 -1 11
-14 0 -13 -4 -19 -11 -14 -8 5 -8 1 0 -14 14 -27 14 -62 0 -62 -8 0 -9 -4 0
-13 6 -8 7 -18 3 -22 -4 -5 9 0 28 11 34 20 35 21 35 87 1 69 -7 86 -47 100
-12 4 -15 2 -12 -8z"/>
<path d="M3120 1200 c-14 -4 -20 -8 -14 -9 7 -1 12 -11 12 -23 0 -13 10 -60
22 -105 23 -83 21 -133 -3 -133 -7 0 -22 -7 -33 -15 -13 -11 -14 -13 -3 -9 13
4 16 -1 13 -25 -2 -17 0 -30 4 -30 23 4 32 -4 32 -29 0 -16 7 -37 15 -48 15
-19 15 -19 9 1 -4 15 -4 17 4 6 7 -9 7 -23 1 -39 -6 -16 -6 -29 0 -35 5 -5 7
-24 4 -43 -3 -18 2 -64 12 -103 16 -68 14 -131 -6 -131 -4 0 -15 -24 -24 -54
-17 -58 -43 -96 -68 -96 -9 0 -17 -13 -22 -36 -3 -20 -13 -44 -22 -52 -9 -9
-13 -28 -11 -47 3 -27 1 -31 -14 -27 -15 4 -18 -2 -18 -42 0 -36 -3 -44 -15
-40 -10 4 -15 0 -15 -15 l0 -22 448 1 c246 1 457 4 470 7 12 3 22 11 22 19 0
20 14 17 35 -6 16 -17 26 -19 69 -14 28 4 59 11 69 16 13 7 25 5 39 -4 16 -11
36 -12 82 -6 38 5 72 5 90 -2 16 -5 120 -10 232 -10 l204 0 0 46 c0 33 -5 51
-17 60 -17 13 -17 13 0 14 16 0 17 18 17 244 l0 245 -26 28 c-15 15 -37 45
-50 65 -45 70 -78 97 -133 104 -28 4 -51 10 -51 14 0 4 -21 14 -46 21 -26 8
-49 20 -51 27 -3 6 -12 12 -21 12 -12 0 -11 -4 6 -20 12 -11 28 -20 37 -20 8
0 15 -4 15 -10 0 -5 8 -10 19 -10 10 0 24 -7 31 -15 22 -27 -4 -40 -78 -40
-77 1 -110 15 -212 92 -100 75 -144 153 -157 278 -3 33 -11 63 -17 67 -16 11
-661 10 -690 -1 -18 -7 -23 -15 -19 -30 3 -12 9 -18 14 -16 4 3 9 -16 11 -42
4 -59 26 -68 69 -27 l29 28 29 -28 c16 -16 34 -25 39 -22 6 3 13 -1 16 -10 3
-9 13 -14 20 -11 14 6 32 -21 21 -31 -3 -3 -5 1 -5 8 0 7 -3 10 -6 7 -4 -4 -2
-12 4 -19 5 -7 13 -34 17 -60 6 -37 4 -48 -6 -48 -12 0 -12 -2 0 -9 8 -5 11
-16 8 -25 -3 -8 0 -28 8 -42 16 -31 11 -73 -12 -120 -13 -25 -14 -37 -4 -64
14 -43 14 -125 -1 -167 -7 -18 -14 -33 -18 -33 -3 1 -17 17 -33 37 l-27 37 5
224 c3 123 8 228 11 234 3 5 -4 12 -16 15 -20 5 -19 7 10 24 17 11 28 24 25
29 -4 6 -11 7 -17 4 -6 -4 -24 8 -40 27 l-28 34 -28 -32 c-16 -18 -36 -33 -45
-33 -9 0 -19 -4 -22 -10 -4 -6 1 -7 11 -3 12 4 15 3 10 -5 -6 -11 5 -17 27
-13 4 0 7 -4 7 -9 0 -6 -8 -10 -19 -10 -16 0 -18 -6 -14 -43 4 -31 0 -53 -15
-80 -20 -37 -19 -69 1 -95 6 -7 12 -68 14 -135 4 -101 2 -126 -11 -142 -13
-17 -17 -18 -26 -5 -32 48 -63 208 -76 403 -5 72 -10 97 -20 97 -11 0 -14 19
-14 80 0 44 4 80 8 80 5 0 8 10 8 23 -1 32 -44 44 -96 27z m622 -68 c-1 -8 2
-11 7 -7 12 7 31 -26 31 -54 0 -12 5 -21 10 -21 7 0 10 -30 8 -82 l-3 -83 -95
-3 c-140 -4 -136 -7 -132 80 2 40 8 79 14 86 7 7 37 12 85 12 56 0 75 4 79 15
13 33 -53 64 -72 34 -4 -7 -9 -8 -17 0 -7 7 -6 15 3 26 17 20 86 17 82 -3z
m-287 -762 c3 -5 1 -10 -4 -10 -6 0 -11 5 -11 10 0 6 2 10 4 10 3 0 8 -4 11
-10z m880 -129 l30 -6 -35 -15 c-21 -9 -63 -15 -102 -14 -52 1 -68 -2 -68 -12
0 -11 18 -14 72 -14 70 0 138 -16 138 -32 0 -7 -33 -13 -54 -9 -15 3 -76 -20
-76 -29 0 -4 9 -10 21 -13 38 -10 9 -27 -47 -27 -51 0 -54 1 -54 25 0 23 -3
25 -51 25 -62 0 -95 24 -63 46 10 7 24 18 31 24 7 5 27 11 45 11 l33 2 -37 10
c-41 11 -49 23 -20 30 26 7 203 6 237 -2z m105 -97 c0 -2 -9 -4 -20 -4 -11 0
-20 4 -20 9 0 5 9 7 20 4 11 -3 20 -7 20 -9z m-445 -74 c0 -31 -31 -39 -50
-13 -17 23 -1 45 29 41 15 -2 21 -10 21 -28z m85 10 c0 -5 -4 -10 -10 -10 -5
0 -10 5 -10 10 0 6 5 10 10 10 6 0 10 -4 10 -10z"/>
<path d="M3592 968 l3 -73 95 0 95 0 3 73 3 72 -101 0 -101 0 3 -72z m108 1
c0 -24 -4 -38 -10 -34 -5 3 -10 22 -10 41 0 19 5 34 10 34 6 0 10 -18 10 -41z"/>
<path d="M1569 1198 c-1 -2 -3 -12 -4 -23 -1 -11 -12 -57 -24 -103 -12 -46
-19 -87 -16 -92 3 -4 1 -10 -4 -12 -5 -1 -11 -14 -13 -28 -1 -14 -5 -27 -8
-30 -3 -3 -4 -48 -2 -100 l4 -94 14 39 c7 22 14 78 14 124 l0 83 33 -4 c32 -3
32 -3 34 39 1 23 11 63 22 89 12 25 21 62 21 80 0 32 -2 34 -35 34 -19 0 -36
-1 -36 -2z"/>
<path d="M1782 1193 c4 -11 -42 -183 -58 -218 -19 -45 -54 -213 -54 -262 0
-28 -5 -46 -14 -49 -15 -6 -21 -90 -7 -99 26 -15 76 61 120 185 9 25 25 57 35
73 13 19 17 38 13 62 -4 23 -1 38 9 46 8 6 14 20 14 31 0 10 5 16 10 13 6 -4
10 35 10 109 l0 116 -40 0 c-22 0 -39 -3 -38 -7z m65 -185 c-3 -8 -6 -5 -6 6
-1 11 2 17 5 13 3 -3 4 -12 1 -19z"/>
<path d="M1880 1138 c0 -34 2 -59 4 -57 10 9 23 89 15 83 -5 -3 -6 2 -3 10 3
9 10 13 15 10 5 -3 9 0 9 5 0 6 -9 11 -20 11 -18 0 -20 -7 -20 -62z"/>
<path d="M2007 1194 c7 -3 9 -12 6 -20 -7 -19 31 -19 47 1 12 14 15 14 30 0 9
-8 29 -15 45 -15 16 0 25 -3 22 -7 -4 -3 0 -14 8 -23 12 -13 15 -35 13 -90
l-3 -72 -107 0 c-100 1 -108 -1 -108 -19 0 -10 -4 -19 -8 -19 -8 0 -7 -18 3
-95 5 -38 5 -39 -8 -16 -14 23 -15 23 -20 5 -3 -10 -9 -48 -12 -83 -7 -60 -6
-64 11 -56 11 4 24 8 31 8 16 0 33 50 34 101 0 23 3 36 5 29 7 -16 34 -5 34
14 0 12 3 11 17 -2 16 -16 17 -16 30 1 8 11 13 13 13 5 0 -8 7 -11 19 -8 10 2
26 0 35 -5 13 -7 16 -4 17 14 l0 23 9 -22 c10 -25 26 -30 33 -10 4 9 7 9 18 0
9 -9 16 -10 26 -2 9 8 13 8 13 0 0 -6 7 -11 15 -11 8 0 15 7 15 16 0 12 5 11
20 -7 10 -13 19 -19 20 -12 0 14 52 13 62 -1 4 -6 12 -5 21 3 11 8 17 9 22 1
4 -6 15 -8 26 -5 10 4 19 2 19 -3 0 -5 6 -9 14 -9 8 0 12 6 8 15 -4 10 -1 13
7 8 7 -5 21 0 33 11 18 15 20 15 15 2 -7 -20 10 -39 28 -33 10 4 13 53 14 200
l1 194 -165 0 -165 0 0 -130 c0 -80 -4 -130 -10 -130 -8 0 -17 213 -11 253 0
4 -56 7 -126 6 -71 0 -123 -3 -116 -5z m323 -14 c0 -5 -7 -10 -15 -10 -8 0
-15 5 -15 10 0 6 7 10 15 10 8 0 15 -4 15 -10z m-43 -32 c-3 -7 -5 -2 -5 12 0
14 2 19 5 13 2 -7 2 -19 0 -25z m228 6 c17 -12 20 -28 22 -99 2 -69 -1 -85
-12 -86 -8 0 -44 0 -80 0 -36 0 -72 0 -80 0 -12 1 -15 19 -15 101 l0 100 73 0
c48 -1 79 -6 92 -16z m-307 -231 c6 -2 12 3 12 10 0 9 2 9 9 -1 4 -8 12 -13
17 -12 5 1 9 -3 11 -9 1 -7 -1 -7 -3 -2 -5 10 -42 3 -60 -11 -10 -7 -77 -11
-136 -6 -11 1 -18 9 -18 20 0 17 7 19 65 17 36 -1 68 1 72 4 4 4 9 4 12 0 3
-5 12 -9 19 -10z"/>
<path d="M2370 1065 l0 -85 75 0 75 0 0 75 c0 60 -3 75 -15 75 -8 0 -15 5 -15
10 0 6 -27 10 -60 10 l-60 0 0 -85z m93 68 c-13 -2 -33 -2 -45 0 -13 2 -3 4
22 4 25 0 35 -2 23 -4z m46 -74 c1 -54 0 -59 -22 -64 -13 -4 -41 -5 -63 -3
l-39 3 -3 54 c-4 65 4 72 74 69 l51 -1 2 -58z"/>
<path d="M2619 1158 c-5 -284 -4 -325 8 -350 16 -33 17 -52 2 -43 -6 4 -5 -2
3 -14 10 -17 10 -25 0 -41 -8 -13 -8 -20 -2 -20 13 0 2 -230 -11 -244 -4 -5
-70 -13 -146 -17 -76 -5 -161 -13 -189 -19 -75 -16 -97 -6 -146 61 -42 58 -44
59 -91 59 -46 0 -47 -1 -36 -22 7 -13 32 -45 56 -71 32 -34 43 -53 38 -65 -4
-9 -11 -35 -17 -57 -29 -127 -79 -229 -133 -272 -19 -16 -35 -31 -35 -35 0 -5
40 -8 88 -8 l89 0 26 49 c15 27 27 56 27 65 0 9 11 28 25 42 l26 26 162 -7
c165 -7 193 -9 226 -20 36 -11 44 16 30 114 -14 101 -10 115 42 126 19 4 34
16 40 32 5 13 13 22 18 19 12 -8 50 36 54 61 2 12 13 30 26 40 22 18 22 21 11
88 -7 39 -16 90 -22 115 -5 25 -9 53 -9 62 0 9 -9 20 -20 23 -18 6 -23 16 -20
43 2 14 -23 43 -36 41 -35 -6 -51 33 -25 60 24 25 25 41 7 61 -22 25 -5 58 32
62 16 2 29 8 29 13 5 31 18 54 36 58 26 7 48 -2 48 -19 0 -8 10 -14 25 -14 14
0 25 5 25 10 0 14 43 13 57 -1 6 -6 9 -17 6 -25 -8 -22 13 -47 41 -49 24 -1
26 2 21 30 -3 16 -7 45 -8 62 l-2 33 -187 0 -188 0 -1 -42z m-373 -803 c19
-15 19 -15 0 -30 -39 -30 -85 -5 -56 30 16 19 31 19 56 0z"/>
<path d="M2012 1106 c-1 -26 5 -38 23 -50 32 -21 40 -20 75 6 40 29 43 78 4
78 -15 0 -23 -4 -19 -11 13 -20 12 -59 -1 -70 -35 -29 -86 29 -56 64 14 15 13
17 -5 17 -16 0 -20 -7 -21 -34z"/>
<path d="M2043 1105 c-3 -9 -3 -18 -1 -21 3 -3 8 4 11 16 6 23 -1 27 -10 5z"/>
<path d="M2070 1105 c-11 -13 -10 -14 4 -9 9 3 16 10 16 15 0 13 -6 11 -20 -6z"/>
<path d="M2150 1099 c0 -5 5 -7 10 -4 6 3 10 8 10 11 0 2 -4 4 -10 4 -5 0 -10
-5 -10 -11z"/>
<path d="M2113 1045 c-29 -20 -53 -32 -53 -27 0 7 -52 42 -64 42 -3 0 -3 -7 0
-15 4 -8 2 -15 -3 -15 -5 0 -10 -11 -11 -25 -2 -25 -2 -25 88 -25 100 0 104 2
98 64 l-3 36 -52 -35z m22 -5 c-3 -5 -12 -10 -18 -10 -7 0 -6 4 3 10 19 12 23
12 15 0z"/>
<path d="M2850 1055 c7 -8 9 -15 4 -15 -5 0 0 -7 10 -15 11 -8 15 -15 9 -15
-6 0 -9 -9 -6 -20 3 -11 10 -20 15 -20 6 0 8 -7 4 -15 -3 -8 -1 -15 4 -15 12
0 30 34 30 58 0 28 -38 72 -62 72 -17 0 -18 -2 -8 -15z"/>
<path d="M3009 1017 c-26 -20 -31 -48 -12 -62 15 -11 15 -17 5 -40 -9 -19 -18
-26 -31 -22 -29 7 -51 -17 -53 -57 -1 -20 -4 -33 -7 -27 -3 5 -18 8 -33 8 -20
-2 -24 -5 -16 -14 7 -9 6 -18 -3 -30 -13 -15 -12 -16 9 -11 14 4 20 2 15 -5
-4 -6 0 -8 10 -4 9 3 19 2 22 -3 4 -6 1 -10 -4 -10 -6 0 -11 -7 -11 -15 0 -8
5 -15 10 -15 6 0 10 5 10 10 0 6 5 10 10 10 6 0 10 -9 10 -20 0 -11 4 -20 8
-20 8 0 8 0 20 -105 8 -82 15 -95 46 -95 35 0 49 37 44 119 -2 39 -1 72 2 74
3 2 0 2 -7 1 -17 -4 -26 13 -11 20 7 3 1 4 -13 1 -26 -5 -56 15 -43 28 4 3 -5
12 -20 18 -28 13 -33 24 -15 34 5 4 9 21 7 38 -2 27 1 33 20 35 14 2 22 10 22
23 0 10 6 19 14 19 13 0 14 34 1 87 -3 12 0 23 8 26 6 2 10 7 7 10 -3 3 -12 0
-21 -6z m-99 -241 c0 -5 -7 -3 -15 4 -8 7 -12 17 -9 22 7 10 24 -9 24 -26z"/>
<path d="M978 983 c7 -3 16 -2 19 1 4 3 -2 6 -13 5 -11 0 -14 -3 -6 -6z"/>
<path d="M1853 805 c0 -33 2 -45 4 -27 2 18 2 45 0 60 -2 15 -4 0 -4 -33z"/>
<path d="M1883 800 c0 -25 2 -35 4 -22 2 12 2 32 0 45 -2 12 -4 2 -4 -23z"/>
<path d="M3012 828 c-21 -21 -7 -68 20 -68 4 0 8 12 8 28 0 21 -2 24 -10 12
-13 -20 -13 -4 0 21 12 21 1 26 -18 7z"/>
<path d="M2531 801 c-8 -15 -8 -22 1 -27 7 -4 10 -4 6 1 -4 4 -3 14 4 22 6 7
8 16 5 19 -3 3 -10 -3 -16 -15z"/>
<path d="M1880 711 c0 -23 5 -41 10 -41 6 0 10 15 10 34 0 19 -4 38 -10 41 -6
4 -10 -10 -10 -34z"/>
<path d="M960 562 c-8 -77 -10 -158 -6 -204 7 -72 10 -80 42 -108 19 -16 46
-30 59 -30 22 0 25 5 25 34 0 30 -2 33 -25 28 -29 -5 -53 12 -67 48 -6 14 -9
100 -8 193 0 92 -1 167 -3 167 -2 0 -10 -57 -17 -128z"/>
<path d="M1916 665 c-8 -9 -19 -16 -23 -15 -4 0 -9 -25 -11 -56 -3 -49 -1 -56
13 -50 9 3 26 6 36 6 11 0 18 4 15 9 -4 5 -2 20 3 33 6 12 10 17 10 11 2 -25
31 -13 31 12 0 14 -4 25 -10 25 -5 0 -10 9 -10 20 0 24 -32 27 -54 5z"/>
<path d="M1845 660 c-3 -5 -1 -10 4 -10 6 0 11 5 11 10 0 6 -2 10 -4 10 -3 0
-8 -4 -11 -10z"/>
<path d="M1278 653 c6 -2 18 -2 25 0 6 3 1 5 -13 5 -14 0 -19 -2 -12 -5z"/>
<path d="M1845 630 c-3 -5 -1 -10 4 -10 6 0 11 5 11 10 0 6 -2 10 -4 10 -3 0
-8 -4 -11 -10z"/>
<path d="M2000 590 c0 -40 0 -40 40 -40 37 0 39 2 31 23 -5 12 -16 21 -24 21
-9 -1 -16 1 -15 5 2 20 -4 31 -17 31 -11 0 -15 -11 -15 -40z"/>
<path d="M1848 580 c-3 -16 -1 -30 4 -30 4 0 8 14 8 30 0 17 -2 30 -4 30 -2 0
-6 -13 -8 -30z"/>
<path d="M604 546 c-10 -8 -20 -19 -20 -25 -1 -6 -2 -14 -3 -17 0 -3 -13 3
-28 14 -25 17 -36 18 -93 11 -36 -5 -77 -14 -92 -20 -21 -8 -35 -8 -55 0 -32
13 -79 14 -216 5 l-97 -6 0 -254 0 -254 130 0 c80 0 130 4 130 10 0 5 37 47
83 92 86 87 203 217 240 267 57 76 121 151 131 151 16 1 -56 39 -75 40 -8 0
-24 -6 -35 -14z"/>
<path d="M1832 521 c-5 -3 -12 -16 -16 -28 -4 -12 -18 -31 -30 -41 -32 -25
-38 -78 -14 -121 11 -18 17 -40 13 -48 -3 -9 3 -29 13 -47 27 -45 46 -140 33
-165 -6 -11 -11 -31 -11 -45 0 -22 5 -26 29 -26 29 0 29 1 30 61 0 33 6 79 12
102 6 23 17 65 24 92 21 76 29 161 16 169 -6 4 -9 11 -7 15 3 4 9 27 15 50 l9
41 -53 -1 c-30 -1 -58 -5 -63 -8z"/>
<path d="M2810 435 c-7 -17 -16 -38 -21 -47 -21 -42 0 -188 28 -188 19 0 53
76 53 120 0 43 -15 100 -34 125 -14 19 -15 19 -26 -10z"/>
<path d="M2960 240 c0 -29 4 -40 15 -40 11 0 15 11 15 40 0 29 -4 40 -15 40
-11 0 -15 -11 -15 -40z"/>
</g>
</svg>
