<svg width="32" height="32" viewBox="0 0 32 32" fill="none" xmlns="http://www.w3.org/2000/svg">
<g filter="url(#filter0_d_3301_1179)">
<mask id="mask0_3301_1179" style="mask-type:luminance" maskUnits="userSpaceOnUse" x="4" y="0" width="24" height="24">
<path d="M4 0H27.0629V23.0629H4V0Z" fill="white"/>
</mask>
<g mask="url(#mask0_3301_1179)">
<mask id="mask1_3301_1179" style="mask-type:luminance" maskUnits="userSpaceOnUse" x="4" y="0" width="24" height="24">
<path d="M15.5315 0C9.16367 0 4 5.16367 4 11.5315C4 17.8993 9.16367 23.0629 15.5315 23.0629C21.8993 23.0629 27.0629 17.8993 27.0629 11.5315C27.0629 5.16367 21.8993 0 15.5315 0Z" fill="white"/>
</mask>
<g mask="url(#mask1_3301_1179)">
<path d="M4 0H27.0629V23.0629H4V0Z" fill="#F1EAFF"/>
</g>
</g>
<path d="M11.4279 12.9832C11.4648 13.0017 11.5091 13.0164 11.5497 13.0164C11.583 13.0164 11.6088 13.0091 11.6384 12.998C12.8573 12.5511 14.1907 12.5141 15.4354 12.8946C15.4761 12.913 15.5204 12.9167 15.561 12.9056H15.5979C16.839 12.5289 18.1724 12.5621 19.395 13.0128C19.4208 13.0275 19.4541 13.0349 19.4799 13.0312C19.6055 13.0312 19.7052 12.9315 19.7052 12.8059V8.34033C19.7052 8.21844 19.6055 8.11872 19.4799 8.11872H18.9296V7.55729C18.9296 7.43909 18.8335 7.33936 18.719 7.33198C16.9757 7.23225 15.9082 7.88971 15.5315 8.18151C15.151 7.8934 14.0873 7.23225 12.3365 7.33198C12.222 7.33936 12.1259 7.43909 12.1259 7.55729V8.1261H11.5497C11.4279 8.1261 11.3281 8.22583 11.3281 8.34772V12.7948C11.3281 12.8687 11.3651 12.9389 11.4279 12.9832ZM18.4827 7.76782V11.5427C17.5223 11.4984 16.5694 11.7422 15.7494 12.2445V8.56564C16.0005 8.36988 16.9239 7.72719 18.4827 7.76782ZM12.5729 7.76782C14.1353 7.72719 15.0587 8.36988 15.3061 8.56564V12.2445C14.5194 11.768 13.6145 11.5242 12.6948 11.5464H12.5729V7.76782Z" fill="#8C52FF"/>
<mask id="mask2_3301_1179" style="mask-type:luminance" maskUnits="userSpaceOnUse" x="8" y="5" width="15" height="13">
<path d="M8.83105 5.85498H22.3054V17.9109H8.83105V5.85498Z" fill="white"/>
</mask>
<g mask="url(#mask2_3301_1179)">
<path d="M21.2084 5.89893H9.8468C9.28537 5.89893 8.83105 6.35693 8.83105 6.91836V14.7968C8.83105 15.0702 8.93817 15.325 9.12654 15.5171C9.31861 15.7092 9.58086 15.82 9.8468 15.82H14.2311L13.0713 17.8108C13.0344 17.881 13.0344 17.9623 13.0713 18.0324C13.1083 18.0989 13.1821 18.1469 13.2634 18.1469H17.7881C17.8693 18.1469 17.9432 18.1026 17.9801 18.0324C18.0208 17.9623 18.0208 17.881 17.9801 17.8108L16.824 15.82H21.2084C21.4743 15.82 21.7365 15.7092 21.9286 15.5171C22.117 15.325 22.2278 15.0702 22.2278 14.7968V6.91836C22.2278 6.35693 21.7698 5.89893 21.2084 5.89893ZM9.8468 6.34585H21.2084C21.5223 6.34585 21.7809 6.60071 21.7809 6.91836V13.626H9.27429V6.92944C9.27059 6.77431 9.33339 6.63026 9.4405 6.51576C9.54762 6.40864 9.69536 6.34585 9.8468 6.34585ZM17.4002 17.7H13.6586L14.7408 15.82H16.3069L17.4002 17.7Z" fill="#8C52FF"/>
</g>
</g>
<defs>
<filter id="filter0_d_3301_1179" x="0" y="0" width="31.0625" height="31.063" filterUnits="userSpaceOnUse" color-interpolation-filters="sRGB">
<feFlood flood-opacity="0" result="BackgroundImageFix"/>
<feColorMatrix in="SourceAlpha" type="matrix" values="0 0 0 0 0 0 0 0 0 0 0 0 0 0 0 0 0 0 127 0" result="hardAlpha"/>
<feOffset dy="4"/>
<feGaussianBlur stdDeviation="2"/>
<feComposite in2="hardAlpha" operator="out"/>
<feColorMatrix type="matrix" values="0 0 0 0 0 0 0 0 0 0 0 0 0 0 0 0 0 0 0.25 0"/>
<feBlend mode="normal" in2="BackgroundImageFix" result="effect1_dropShadow_3301_1179"/>
<feBlend mode="normal" in="SourceGraphic" in2="effect1_dropShadow_3301_1179" result="shape"/>
</filter>
</defs>
</svg>
