<svg width="267" height="492" viewBox="0 0 267 492" fill="none" xmlns="http://www.w3.org/2000/svg">
<mask id="mask0_89_159" style="mask-type:luminance" maskUnits="userSpaceOnUse" x="0" y="0" width="267" height="492">
<path d="M266.724 491.609L-2.8294e-05 491.609L-2.8294e-05 2.16034e-05L266.724 2.16034e-05L266.724 491.609Z" fill="white"/>
</mask>
<g mask="url(#mask0_89_159)">
<path d="M42.0209 6.89704C32.1667 -2.53145 16.4584 -2.26797 6.95318 7.51183C-2.32807 17.023 -2.32807 32.1706 6.95318 41.6817L212.74 245.807L6.95318 449.933C-2.55203 459.708 -2.2864 475.289 7.56776 484.671C17.1615 493.883 32.3855 493.924 42.0209 484.718L255.328 273.127C270.552 258.026 270.552 233.589 255.328 218.488L42.0209 6.89704Z" fill="white"/>
</g>
</svg>
